<svg width="296" height="60" viewBox="0 0 296 60" fill="none" xmlns="http://www.w3.org/2000/svg">
<path d="M15.6286 51.1746C15.0307 54.0529 13.8565 56.2328 12.1057 57.7143C10.355 59.2381 7.87833 60 4.67576 60H0L1.28103 53.7143H7.36592L14.0913 20.4444H9.35151L10.6325 14.1587H15.3723L16.3972 9.14286C16.995 6.26455 18.1693 4.08466 19.92 2.60318C21.6707 1.07937 24.1688 0.317464 27.414 0.317464H32.346L31.0009 6.60318H24.6598L23.1226 14.1587H29.7199L28.4388 20.4444H21.8415L15.6286 51.1746Z" fill="#EB7500"/>
<path d="M56.3628 47.3016C54.8255 47.3016 53.5659 46.8995 52.5837 46.0952C51.6016 45.291 51.1106 44.1693 51.1106 42.7302C51.1106 42.3915 51.1319 42.0317 51.1746 41.6508C51.26 41.2698 51.3241 40.9735 51.3668 40.7619L51.5589 39.746H51.2387C49.8722 42.455 48.3564 44.5291 46.691 45.9683C45.0257 47.3651 42.912 48.0635 40.3499 48.0635C38.8127 48.0635 37.4463 47.7884 36.2506 47.2381C35.0977 46.6455 34.1369 45.8201 33.3683 44.7619C32.5997 43.7037 32.0232 42.455 31.6389 41.0159C31.2546 39.5767 31.0625 37.9683 31.0625 36.1905C31.0625 32.9735 31.4468 29.9894 32.2154 27.2381C32.984 24.4444 34.0515 22.0317 35.4179 20C36.8271 17.9259 38.4924 16.3175 40.414 15.1746C42.3782 13.9894 44.5133 13.3968 46.8191 13.3968C49.0823 13.3968 50.9825 13.9894 52.5197 15.1746C54.0569 16.3598 54.975 17.9048 55.2739 19.8095H55.5942L56.7471 14.1587H64.4973L59.0529 41.0159H63.0882L61.8712 47.3016H56.3628ZM43.8727 41.6508C45.1111 41.6508 46.2213 41.3545 47.2034 40.7619C48.2282 40.127 49.1036 39.3862 49.8295 38.5397C50.6836 37.6085 51.3881 36.5503 51.9432 35.3651C52.4983 34.1376 52.9254 32.8466 53.2243 31.4921L54.3772 25.8413C54.7188 24.1481 54.3345 22.7302 53.2243 21.5873C52.1567 20.4021 50.5981 19.8095 48.5485 19.8095C44.1503 19.8095 41.3961 22.5397 40.2859 28L39.3891 32.5714C39.3037 33.037 39.2183 33.6085 39.1329 34.2857C39.0475 34.963 39.0048 35.5556 39.0048 36.0635C39.0048 37.7566 39.4105 39.1111 40.2218 40.127C41.0758 41.1429 42.2928 41.6508 43.8727 41.6508Z" fill="#EB7500"/>
<path d="M81.7842 48.0635C79.094 48.0635 76.5747 47.5767 74.2261 46.6032C71.9203 45.5873 70.0628 44.1058 68.6537 42.1587L73.5856 37.6508C74.5677 38.963 75.7207 39.9788 77.0444 40.6984C78.4108 41.418 80.0548 41.7778 81.9764 41.7778C84.0687 41.7778 85.6273 41.3545 86.6521 40.5079C87.7196 39.6614 88.2534 38.6243 88.2534 37.3968C88.2534 36.5926 87.9972 35.8942 87.4848 35.3016C86.9724 34.709 86.0116 34.3069 84.6025 34.0952L81.4639 33.6508C78.6884 33.2275 76.5106 32.3175 74.9307 30.9206C73.3508 29.5238 72.5608 27.4921 72.5608 24.8254C72.5608 23.3016 72.817 21.8624 73.3294 20.5079C73.8845 19.1111 74.7172 17.9048 75.8274 16.8889C76.9376 15.8307 78.3254 14.9841 79.9908 14.3492C81.6988 13.7143 83.6844 13.3968 85.9475 13.3968C91.1571 13.3968 95.171 15.1111 97.9892 18.5397L92.9932 23.0476C92.1819 22.0317 91.1357 21.2275 89.8547 20.6349C88.6164 20 87.1859 19.6825 85.5632 19.6825C83.7698 19.6825 82.4034 20.0635 81.4639 20.8254C80.5672 21.545 80.1189 22.5185 80.1189 23.746C80.1189 24.5503 80.3751 25.2487 80.8875 25.8413C81.3999 26.4339 82.3393 26.836 83.7057 27.0476L86.8443 27.4921C89.6625 27.9153 91.8616 28.8254 93.4416 30.2222C95.0215 31.619 95.8115 33.6508 95.8115 36.3175C95.8115 37.9259 95.4912 39.4497 94.8507 40.8889C94.2529 42.328 93.3562 43.5767 92.1605 44.6349C90.9649 45.6931 89.4917 46.5397 87.741 47.1746C85.9902 47.7672 84.0046 48.0635 81.7842 48.0635Z" fill="#EB7500"/>
<path d="M111.604 47.3016C106.992 47.3016 104.687 45.418 104.687 41.6508C104.687 41.3122 104.708 40.9312 104.751 40.5079C104.793 40.0423 104.857 39.5767 104.943 39.1111L108.722 20.4444H103.918L105.135 14.1587H107.505C108.829 14.1587 109.704 13.9048 110.131 13.3968C110.601 12.8466 110.942 12 111.156 10.8571L112.309 5.07937H119.547L117.753 14.1587H124.479L123.197 20.4444H116.472L112.309 41.0159H118.65L117.369 47.3016H111.604Z" fill="#EB7500"/>
<path d="M129.532 14.1587H134.335L135.36 9.14286C135.958 6.26455 137.132 4.08466 138.883 2.60318C140.634 1.07937 143.132 0.317464 146.377 0.317464H150.925L149.58 6.60318H143.623L142.086 14.1587H161.365L155.985 41.0159H160.02L158.739 47.3016H153.359C151.736 47.3016 150.434 46.8783 149.452 46.0317C148.512 45.1429 148.042 43.9788 148.042 42.5397C148.042 42.1164 148.106 41.5873 148.235 40.9524L152.334 20.4444H140.805L134.592 51.1746C133.994 54.0529 132.82 56.2328 131.069 57.7143C129.318 59.2381 126.841 60 123.639 60H118.963L120.244 53.7143H126.329L133.054 20.4444H128.315L129.532 14.1587ZM158.611 9.33333C157.202 9.33333 156.177 9.0582 155.536 8.50794C154.896 7.95768 154.576 7.2381 154.576 6.34921C154.576 5.71429 154.682 4.91006 154.896 3.93651C155.152 2.87831 155.643 1.96826 156.369 1.20635C157.138 0.402118 158.44 0 160.276 0C161.685 0 162.71 0.275133 163.351 0.825398C163.991 1.37566 164.311 2.09524 164.311 2.98413C164.311 3.61905 164.205 4.42328 163.991 5.39683C163.735 6.45503 163.223 7.38624 162.454 8.19048C161.728 8.95238 160.447 9.33333 158.611 9.33333Z" fill="#EB7500"/>
<path d="M173.111 47.3016C171.445 47.3016 170.122 46.8783 169.139 46.0317C168.2 45.1429 167.73 43.9788 167.73 42.5397C167.73 42.2857 167.73 42.0741 167.73 41.9048C167.773 41.6931 167.837 41.3968 167.922 41.0159L176.121 0.317464H183.871L175.673 41.0159H179.964L178.747 47.3016H173.111Z" fill="#EB7500"/>
<path d="M192.359 47.3016C190.693 47.3016 189.369 46.8783 188.387 46.0317C187.448 45.1429 186.978 43.9788 186.978 42.5397C186.978 42.2857 186.978 42.0741 186.978 41.9048C187.021 41.6931 187.085 41.3968 187.17 41.0159L195.369 0.317464H203.119L194.921 41.0159H234L232.783 47.3016H192.359Z" fill="#EB7500"/>
<path d="M208.086 23H249L247.552 27H207L208.086 23Z" fill="#EB7500"/>
<path d="M239.5 43H296L294 47H238L239.5 43Z" fill="#EB7500"/>
<path d="M215.216 33H261L259.379 37H214L215.216 33Z" fill="#EB7500"/>
</svg>
